<?xml version="1.0" standalone="no"?>
<!DOCTYPE svg PUBLIC "-//W3C//DTD SVG 20010904//EN"
 "http://www.w3.org/TR/2001/REC-SVG-20010904/DTD/svg10.dtd">
<svg version="1.0" xmlns="http://www.w3.org/2000/svg"
 width="64.000000pt" height="64.000000pt" viewBox="0 0 64.000000 64.000000"
 preserveAspectRatio="xMidYMid meet">

<g transform="translate(0.000000,64.000000) scale(0.100000,-0.100000)"
fill="#000000" stroke="none">
<path d="M0 551 l0 -90 73 20 c39 12 178 50 307 85 129 36 236 67 239 70 2 2
-136 4 -307 4 l-312 0 0 -89z"/>
<path d="M130 444 c0 -4 16 -32 35 -64 19 -32 35 -61 35 -65 0 -5 -18 -39 -40
-77 -42 -73 -40 -83 15 -76 21 2 34 15 58 61 17 31 34 57 38 57 5 0 9 -26 11
-57 3 -57 3 -58 35 -61 l32 -3 3 56 c2 30 8 56 13 58 6 1 24 -24 40 -55 28
-55 32 -58 68 -58 36 0 48 14 29 36 -5 5 -23 34 -40 64 l-31 56 39 61 c21 34
36 64 33 67 -4 3 -21 6 -39 6 -29 0 -36 -6 -61 -52 -39 -72 -53 -73 -53 -3 l0
56 -32 -3 c-32 -3 -33 -4 -34 -52 0 -28 -5 -51 -10 -53 -5 -2 -23 22 -39 52
-28 52 -32 55 -67 55 -21 0 -38 -3 -38 -6z"/>
</g>
</svg>
